# xmcd
#
# Track frame offsets: 
#        150
#        9680
#        26000
#        42025
#        57915
#        74262
#        92562
#        103710
#        117520
#        139167
#        164297
#
# Disc length: 2508 seconds
#
# Revision: 1
# Processed by: cddbd v1.5.2PL0 Copyright (c) Steve Scherf et al.
# Submitted via: ExactAudioCopy v0.95b4
#
DISCID=9109ca0b
DTITLE=Сектор Газа - Колхозный панк
DYEAR=1992
DGENRE=Punk Rock
TTITLE0=Вступление
TTITLE1=Колхозный Панк
TTITLE2=Плуги-Вуги
TTITLE3=Патриот
TTITLE4=Наркоман
TTITLE5=Банка
TTITLE6=Попец
TTITLE7=Местные
TTITLE8=Утопленик
TTITLE9=Пасха
TTITLE10=Плуги-Вуги (Стёб-Хаус REMIX)
EXTD=
EXTT0=
EXTT1=
EXTT2=
EXTT3=
EXTT4=
EXTT5=
EXTT6=
EXTT7=
EXTT8=
EXTT9=
EXTT10=
PLAYORDER=
